<?xml version="1.0" encoding="utf-8"?>
<!-- Generator: Adobe Illustrator 23.0.1, SVG Export Plug-In . SVG Version: 6.00 Build 0)  -->
<svg version="1.1" id="图层_1" xmlns="http://www.w3.org/2000/svg" xmlns:xlink="http://www.w3.org/1999/xlink" x="0px" y="0px"
	 viewBox="0 0 64 64" style="enable-background:new 0 0 64 64;" xml:space="preserve">
<style type="text/css">
	.st0{font-family:'AdobeSongStd-Light-GBpc-EUC-H';}
	.st1{font-size:12px;}
</style>
<path d="M53.1,42.8H10.6v-2.4h42.6C53.1,40.4,53.1,42.8,53.1,42.8z"/>
<path d="M8.4,18.1L8.3,58.4c0,3.1,2,5.6,4.5,5.6l38,0.1c2.5,0,4.5-2.5,4.5-5.6l0.1-52.8c0-3.1-2-5.6-4.5-5.6L20.6,0l-0.1,0.1
	c-0.1,0-0.1,0.1-0.2,0.1l-9.8,12.2v0l-2.2,2.8l0,2.7 M20.7,3.8l0,8.8c0,1.5-1,2.8-2.2,2.8l-7,0L20.7,3.8L20.7,3.8z M10.6,58.4
	l0.1-40.3l7.8,0c2.5,0,4.5-2.5,4.5-5.6l0-9.7l28,0c1.2,0,2.2,1.2,2.2,2.8l-0.1,52.8c0,1.5-1,2.8-2.2,2.8l-38-0.1
	C11.6,61.2,10.6,59.9,10.6,58.4L10.6,58.4z"/>
<g>
	<text transform="matrix(1 0 0 1 15.4679 55.1274)" class="st0 st1">AXML</text>
</g>
</svg>
