<?xml version="1.0" encoding="utf-8"?>
<!-- Generator: Adobe Illustrator 23.0.1, SVG Export Plug-In . SVG Version: 6.00 Build 0)  -->
<svg version="1.1" id="图层_1" xmlns="http://www.w3.org/2000/svg" xmlns:xlink="http://www.w3.org/1999/xlink" x="0px" y="0px"
	 viewBox="0 0 16 16" style="enable-background:new 0 0 16 16;" xml:space="preserve">
<style type="text/css">
	.st0{fill:#AEB9C0;}
	.st1{fill:#13AED8;}
	.st2{fill:#FFFFFF;}
	.st3{font-family:'SimHei';}
	.st4{font-size:5px;}
</style>
<path class="st0" d="M2,14.4V5.1l0,0c0-0.2,0-0.3,0.2-0.4L6,0.2C6.1,0.1,6.2,0,6.3,0h6.2c0.4,0,0.7,0.2,1,0.5S14,1.2,14,1.6v12.7
	c0,0.4-0.2,0.9-0.4,1.2l0,0l0,0c-0.3,0.3-0.6,0.5-1,0.5H3.4c-0.4,0-0.7-0.2-1-0.5l0,0l0,0C2.2,15.2,2,14.8,2,14.4z M3,5h2.3
	c0.2,0,0.4-0.1,0.5-0.2l0,0C5.9,4.7,6,4.5,6,4.3V2L3,5z"/>
<rect y="10.7" class="st1" width="16" height="5.3"/>
<text transform="matrix(1 0 0 1 3.0002 15.1078)" class="st2 st3 st4">AXML</text>
</svg>
